PathFileType	4	(X/Y/Z)	./resultDataOpenSim/trcMotMarkerGrf/sub09/qtm-13-08.trc
DataRate	CameraRate	NumFrames	NumMarkers	Units	OrigDataRate	OrigDataStartFrame	OrigNumFrames
250.000000	250.000000	14	24	m	250.000000	60	479
Frame#	Time	L.Toe.Tip			R.Toe.Tip			L.Ankle.Lat			R.Ankle.Lat			L.Ankle.Med			R.Ankle.Med			L.Heel			R.Heel			L.Knee.Lat			R.Knee.Lat			L.Knee.Med			R.Knee.Med			L.Thigh.Upper			R.Thigh.Upper			L.ASIS			R.ASIS			V.Sacral			L.Acromium			R.Acromium			C7			L.Elbow			R.Elbow			L.Wrist.Lat			R.Wrist.Lat
		X1	Y1	Z1	X2	Y2	Z2	X3	Y3	Z3	X4	Y4	Z4	X5	Y5	Z5	X6	Y6	Z6	X7	Y7	Z7	X8	Y8	Z8	X9	Y9	Z9	X10	Y10	Z10	X11	Y11	Z11	X12	Y12	Z12	X13	Y13	Z13	X14	Y14	Z14	X15	Y15	Z15	X16	Y16	Z16	X17	Y17	Z17	X18	Y18	Z18	X19	Y19	Z19	X20	Y20	Z20	X21	Y21	Z21	X22	Y22	Z22	X23	Y23	Z23	X24	Y24	Z24

60	0.236	-1.3984932	0.08478902	-0.091157838	-0.62770333	0.039328431	0.062171162	-1.4129829	0.24058999	-0.13816472	-0.77384426	0.053651842	0.092471829	-1.3911866	0.22678577	-0.043595835	-0.76699182	0.090424282	0.00090259721	-1.4720585	0.28934455	-0.092457069	-0.84303624	0.031240198	0.044910743	-1.0369579	0.41509821	-0.15740824	-0.7358477	0.50786681	0.14229268	-1.024179	0.40119264	-0.033599794	-0.75480893	0.49198646	0.016564077	-0.98047733	0.81972236	-0.16864725	-0.94500409	0.85335611	0.20372408	-0.88576143	0.90524622	-0.11648622	-0.87916644	0.93600987	0.12212082	-1.0519248	0.97595928	0.0052779989	-0.86949326	1.378232	-0.14411851	-0.92522562	1.3745958	0.18028244	-0.96440408	1.4285587	0.01310269	-0.97607204	1.0213356	-0.23398812	-1.0658754	1.0389301	0.24520783	-0.7580078	0.86522882	-0.19164678	-0.95760534	0.79317119	0.28550576
61	0.24	-1.3856408	0.087526896	-0.093038604	-0.62761991	0.039289771	0.061971741	-1.4004669	0.24363406	-0.13772575	-0.77380271	0.053735212	0.092424018	-1.3780915	0.22885934	-0.043398336	-0.76671885	0.090427624	0.00075201087	-1.459601	0.2919579	-0.090974759	-0.84307013	0.031256899	0.044902522	-1.0237366	0.41532808	-0.15725032	-0.73180304	0.50766605	0.14190099	-1.012412	0.40135392	-0.033063591	-0.75160682	0.49212363	0.016313842	-0.97432128	0.82043081	-0.16837916	-0.93863107	0.85471524	0.20391191	-0.87986497	0.90632116	-0.1164734	-0.87270906	0.93702555	0.12214225	-1.0460257	0.97743081	0.0064655888	-0.86332415	1.3792533	-0.14412495	-0.91816411	1.3757094	0.18041597	-0.95721695	1.4299303	0.014546692	-0.97064185	1.0224868	-0.23366791	-1.058295	1.0398457	0.24655744	-0.75386137	0.86442066	-0.19198377	-0.9490915	0.79428345	0.28510339
62	0.244	-1.3723224	0.090027546	-0.094814526	-0.62754179	0.039275539	0.061786082	-1.3876863	0.24638934	-0.13723221	-0.77381278	0.053837296	0.092386073	-1.3648865	0.23062821	-0.043112046	-0.7664581	0.090414291	0.00059684805	-1.4470497	0.29417243	-0.08948206	-0.84311923	0.031270393	0.044879697	-1.010514	0.4157393	-0.15704489	-0.72798378	0.50740128	0.14157948	-0.99991007	0.40163775	-0.032511903	-0.74846974	0.49221155	0.016074813	-0.96813723	0.82124243	-0.16814791	-0.93234271	0.85615717	0.20408673	-0.87403463	0.90749169	-0.11650526	-0.86628956	0.93819598	0.12210656	-1.0400212	0.97893701	0.0069904394	-0.85721752	1.3803508	-0.14416224	-0.91108662	1.3768986	0.18051141	-0.95072812	1.4313433	0.014900167	-0.96495071	1.0236898	-0.23314353	-1.0509095	1.0408211	0.24755329	-0.74977068	0.86368183	-0.19236133	-0.94053016	0.79548978	0.2846574
63	0.248	-1.3585898	0.092272711	-0.096450414	-0.62747948	0.039276371	0.061611759	-1.374669	0.24881821	-0.13670284	-0.77385963	0.053949364	0.092350313	-1.351392	0.23215959	-0.04279061	-0.76622058	0.090389607	0.00044117068	-1.4343387	0.29602187	-0.088155483	-0.84318614	0.031282716	0.044834771	-0.99726496	0.41634417	-0.15676469	-0.72436574	0.50713639	0.14134329	-0.98649005	0.4020363	-0.031984669	-0.74538128	0.49221774	0.0158514	-0.96193859	0.82216405	-0.16795121	-0.92617757	0.85765602	0.20425143	-0.86823684	0.90876339	-0.11655035	-0.85991922	0.93950425	0.12204203	-1.0339961	0.9804758	0.0071956554	-0.8511931	1.3815252	-0.14422475	-0.90400638	1.378165	0.18058432	-0.94495143	1.4327929	0.01419169	-0.95905982	1.0249679	-0.23243794	-1.0436733	1.0418897	0.24828762	-0.74572991	0.86301955	-0.19276809	-0.93194251	0.79678746	0.28416963
64	0.252	-1.3444752	0.094270915	-0.097920938	-0.62744798	0.039281836	0.061450802	-1.3614198	0.25089773	-0.13613648	-0.77392642	0.054061628	0.092317899	-1.337452	0.2335159	-0.042492264	-0.7660097	0.090358625	0.00029096061	-1.4214495	0.29752301	-0.087034442	-0.843269	0.031295188	0.044766941	-0.98403377	0.41715659	-0.15642219	-0.72093256	0.50687818	0.14119902	-0.97261155	0.40250763	-0.031489278	-0.7423636	0.49212808	0.015675078	-0.95573196	0.823207	-0.16778918	-0.92011229	0.85921092	0.20440656	-0.86244029	0.91014107	-0.11657485	-0.85359182	0.94092044	0.12196348	-1.0279848	0.98204832	0.0073576651	-0.8452628	1.3827792	-0.1443048	-0.89694871	1.3795095	0.18065283	-0.93941433	1.4342816	0.013154931	-0.95326623	1.0263356	-0.23175522	-1.0365127	1.0430617	0.24892062	-0.74172906	0.86243861	-0.19318761	-0.92333876	0.79818432	0.28365167
65	0.256	-1.3299894	0.09604638	-0.099219861	-0.62746554	0.03928528	0.061305866	-1.3479535	0.25263453	-0.13553879	-0.7740071	0.054165736	0.092290014	-1.3231667	0.23470822	-0.04220851	-0.76582658	0.090324845	0.00014895861	-1.4084	0.29868379	-0.086063611	-0.84336094	0.03130816	0.044684929	-0.97088546	0.4181687	-0.15603565	-0.71769868	0.50657821	0.14113336	-0.95862797	0.40303415	-0.030998411	-0.73948331	0.49195326	0.015630533	-0.94951323	0.82438282	-0.16766823	-0.91411692	0.86082259	0.20455078	-0.85664142	0.9116285	-0.11656369	-0.84727783	0.9424161	0.12188308	-1.0219791	0.98365879	0.007591794	-0.8394132	1.3841178	-0.14439481	-0.88993286	1.3809339	0.18072418	-0.93363672	1.4358172	0.012514668	-0.94774745	1.0277933	-0.23120599	-1.0293773	1.0443277	0.24955946	-0.73775895	0.86194331	-0.19360371	-0.91473036	0.7996889	0.28311647
66	0.26	-1.3151301	0.097615609	-0.100344	-0.62754981	0.039283105	0.06118253	-1.3343031	0.25405205	-0.13492985	-0.77410735	0.054260671	0.092260765	-1.3088539	0.23569824	-0.041855929	-0.76568437	0.09029081	1.2706723e-05	-1.3952228	0.29950988	-0.085166464	-0.84345363	0.031321217	0.044599361	-0.9578618	0.41936381	-0.15561387	-0.71469969	0.50619063	0.14111287	-0.94472415	0.4036867	-0.030490792	-0.73682072	0.49171961	0.015828578	-0.94327859	0.82569626	-0.16758356	-0.90818515	0.86247505	0.20467874	-0.85086663	0.91322362	-0.11652736	-0.84092747	0.94396477	0.12182377	-1.0159787	0.98531473	0.0078820941	-0.8335769	1.3855428	-0.14448366	-0.88295913	1.3824422	0.18079556	-0.9274915	1.4374072	0.012448319	-0.94241442	1.0293407	-0.23071478	-1.0222471	1.0456748	0.25023124	-0.73382773	0.86154051	-0.19400655	-0.90612904	0.80130115	0.28257429
67	0.264	-1.2999017	0.098976921	-0.10128056	-0.62769829	0.039275852	0.061091561	-1.3205086	0.25516635	-0.13432298	-0.77423251	0.054348834	0.09222668	-1.2948244	0.2364505	-0.041349212	-0.76560835	0.090258826	-0.00012304642	-1.3819426	0.3000048	-0.084294152	-0.84354014	0.031334205	0.044515975	-0.94495691	0.42072804	-0.15516572	-0.71193957	0.50571559	0.14110956	-0.9310522	0.40456893	-0.02996581	-0.73438149	0.49145597	0.016274343	-0.93702706	0.82714083	-0.16752458	-0.90231612	0.86413961	0.20478909	-0.84514866	0.91491915	-0.11648036	-0.83448121	0.94553834	0.1218106	-1.0100064	0.98701982	0.0081662232	-0.82767666	1.3870518	-0.14455922	-0.87602249	1.3840361	0.18086522	-0.92113245	1.4390486	0.012707722	-0.93711814	1.0309781	-0.23018141	-1.0151167	1.0470941	0.25091895	-0.72996836	0.86123955	-0.19439741	-0.89754573	0.80301271	0.28202879
68	0.268	-1.2843387	0.1001148	-0.10200809	-0.62787352	0.039271756	0.061043601	-1.3066074	0.25597895	-0.13371753	-0.77437348	0.054426842	0.092197309	-1.2813125	0.23695265	-0.040635479	-0.76560668	0.090232836	-0.00025570642	-1.3685704	0.30016607	-0.083441995	-0.84361692	0.031349657	0.044433889	-0.9321203	0.42224805	-0.15471239	-0.70936037	0.50519041	0.14111756	-0.91764984	0.40571646	-0.029418012	-0.73206164	0.49118961	0.016798611	-0.930762	0.82870282	-0.16750475	-0.89654371	0.86578658	0.20488538	-0.83949532	0.91670571	-0.1164156	-0.82790246	0.947113	0.1218599	-1.0040819	0.98877001	0.0084252081	-0.8217425	1.3886391	-0.14462378	-0.86913179	1.3857124	0.18093855	-0.91475237	1.4407261	0.01300872	-0.93181069	1.032696	-0.22957631	-1.0079885	1.0485828	0.25160329	-0.72621136	0.8610498	-0.19478407	-0.8889889	0.80481764	0.2814787
69	0.272	-1.2685173	0.10100454	-0.10249477	-0.62803146	0.039282246	0.061040468	-1.2926208	0.25648643	-0.13310911	-0.77450739	0.054491543	0.092183001	-1.2684375	0.23719109	-0.03968502	-0.76564937	0.090219194	-0.00036692994	-1.35511	0.29998437	-0.082638439	-0.84368491	0.031372707	0.044348674	-0.9193163	0.42391028	-0.15427804	-0.70690049	0.50465925	0.14114618	-0.90446698	0.40709436	-0.028842522	-0.72976879	0.49094498	0.017223225	-0.9245011	0.83036702	-0.16754975	-0.89105532	0.86738155	0.20495416	-0.83387097	0.91857384	-0.11630751	-0.82125826	0.9486764	0.12197752	-0.9981922	0.99056129	0.0086948418	-0.81591362	1.390293	-0.14469772	-0.86230579	1.3874665	0.18102404	-0.9084548	1.4424257	0.013221501	-0.92651199	1.0344781	-0.22890338	-1.0008698	1.050138	0.25228153	-0.72255793	0.86097753	-0.19517079	-0.88045952	0.80671691	0.28092543
70	0.276	-1.2525243	0.10162572	-0.10270382	-0.62816154	0.039312384	0.061073621	-1.2785434	0.25668661	-0.13249364	-0.77461658	0.054551813	0.092176457	-1.2559038	0.23717583	-0.038569935	-0.76569631	0.090223734	-0.00043750335	-1.3415726	0.2994464	-0.081914319	-0.84374685	0.031404969	0.044258482	-0.90653773	0.42571445	-0.15385274	-0.70461114	0.504163	0.14122514	-0.89142409	0.40867844	-0.028268172	-0.72750258	0.4907381	0.017510455	-0.91828192	0.83212025	-0.16764739	-0.88626316	0.8688744	0.20494098	-0.82820715	0.9205202	-0.11613888	-0.81481422	0.95022029	0.12214672	-0.99229156	0.99239252	0.0089685837	-0.81026924	1.3919977	-0.14479552	-0.85555014	1.3892939	0.18112436	-0.90223983	1.44415	0.013353345	-0.92124693	1.036318	-0.2281779	-0.99376709	1.0517507	0.25296112	-0.71899345	0.86101851	-0.19555413	-0.87195198	0.80871181	0.28037406
71	0.28	-1.2363723	0.1019888	-0.10263917	-0.62828261	0.039359484	0.06113177	-1.2643539	0.25658255	-0.13186964	-0.77470438	0.054620902	0.092159856	-1.2427359	0.23700373	-0.037579209	-0.76573663	0.09024896	-0.00046699913	-1.3279863	0.29853994	-0.08127728	-0.84380373	0.031439689	0.044165739	-0.89370347	0.42768988	-0.15337848	-0.70267625	0.5037438	0.14140561	-0.87842161	0.41050961	-0.027746153	-0.72523954	0.49057282	0.017654914	-0.91214652	0.83395808	-0.16772715	-0.88252528	0.87022854	0.20478066	-0.82244196	0.92255092	-0.11591619	-0.80899015	0.95173136	0.1223261	-0.9863169	0.99425782	0.0090676174	-0.80474101	1.3937476	-0.14490708	-0.84884558	1.3911852	0.18123094	-0.89605972	1.4459118	0.013458625	-0.91602777	1.0382262	-0.22743654	-0.98668062	1.0534103	0.25364716	-0.7155117	0.8611503	-0.19592654	-0.86346274	0.81079776	0.27982842
72	0.284	-1.2199562	0.10214051	-0.10238249	-0.62841741	0.039418311	0.061208267	-1.2500399	0.25618626	-0.13123856	-0.77478976	0.054699807	0.092125238	-1.2278391	0.23679793	-0.037064413	-0.76578477	0.090294746	-0.00046885182	-1.3143771	0.29725993	-0.080709764	-0.84385521	0.03146711	0.044072203	-0.88073024	0.42987468	-0.15280985	-0.70119866	0.50343256	0.1416991	-0.86543413	0.4126652	-0.027297835	-0.72285856	0.49044486	0.017572969	-0.90609425	0.83589283	-0.16769718	-0.87953065	0.87148309	0.20450478	-0.81657195	0.92466935	-0.11565815	-0.80400234	0.95320334	0.12248972	-0.98020767	0.99614934	0.0086501881	-0.79922177	1.3955495	-0.14501263	-0.84216829	1.3931235	0.18133118	-0.8898856	1.447716	0.013567609	-0.91085447	1.0402132	-0.22671221	-0.97960629	1.0551094	0.25433816	-0.71211067	0.86134725	-0.19628652	-0.85499052	0.81296433	0.27929032
73	0.288	-1.2031547	0.10212848	-0.10203368	-0.62858602	0.039484192	0.061300748	-1.2356042	0.25551315	-0.13060236	-0.7748941	0.054777658	0.092079433	-1.2112242	0.23654667	-0.037027167	-0.76585441	0.090359518	-0.00045452868	-1.3007439	0.29561006	-0.080190548	-0.84390423	0.03148264	0.043974339	-0.86774349	0.4322641	-0.15217334	-0.69998137	0.50323152	0.14202801	-0.85264378	0.41516066	-0.026859133	-0.72029369	0.49034953	0.017233709	-0.90000499	0.83795192	-0.16749338	-0.87621045	0.87275004	0.20428619	-0.81067612	0.92686184	-0.11537549	-0.79949444	0.95465513	0.12265798	-0.97396273	0.99806776	0.0075541737	-0.79367134	1.3974045	-0.14510249	-0.83551691	1.3950923	0.1814209	-0.88371613	1.4495522	0.013682401	-0.90572081	1.0422675	-0.22599741	-0.97254056	1.0568446	0.25503006	-0.70876792	0.86160713	-0.19664274	-0.84653065	0.81520009	0.27876077
